<mxfile host="app.diagrams.net" modified="2024-05-24T14:25:13.324Z" agent="Mozilla/5.0 (Windows NT 10.0; Win64; x64; rv:125.0) Gecko/20100101 Firefox/125.0" etag="UFxKnUGdysRzD2Ut0WFg" version="24.4.8" type="device">
  <diagram name="Seite-1" id="-Y3ttR1G3K-gq66Uxv_u">
    <mxGraphModel dx="1902" dy="448" grid="1" gridSize="10" guides="1" tooltips="1" connect="1" arrows="1" fold="1" page="1" pageScale="1" pageWidth="827" pageHeight="1169" math="0" shadow="0">
      <root>
        <mxCell id="0" />
        <mxCell id="1" parent="0" />
        <mxCell id="MBGzg75yS8HFPgkhsMzI-1" value="&lt;font style=&quot;font-size: 18px;&quot;&gt;Storage/Backend-System&lt;/font&gt;" style="text;html=1;align=center;verticalAlign=middle;whiteSpace=wrap;rounded=0;fillColor=none;" parent="1" vertex="1">
          <mxGeometry x="100" y="30" width="210" height="30" as="geometry" />
        </mxCell>
        <mxCell id="JeL8wwhdjaoixTxPm0fJ-4" value="&lt;div&gt;SerializedObject&lt;/div&gt;&amp;lt;interface&amp;gt;" style="swimlane;fontStyle=1;align=center;verticalAlign=middle;childLayout=stackLayout;horizontal=1;startSize=29;horizontalStack=0;resizeParent=1;resizeParentMax=0;resizeLast=0;collapsible=0;marginBottom=0;html=1;whiteSpace=wrap;fillColor=#FFFFCC;" parent="1" vertex="1">
          <mxGeometry x="530" y="180" width="220" height="79" as="geometry" />
        </mxCell>
        <mxCell id="JeL8wwhdjaoixTxPm0fJ-6" value="- name : String" style="text;html=1;strokeColor=none;fillColor=#FFFFCC;align=left;verticalAlign=middle;spacingLeft=4;spacingRight=4;overflow=hidden;rotatable=0;points=[[0,0.5],[1,0.5]];portConstraint=eastwest;whiteSpace=wrap;" parent="JeL8wwhdjaoixTxPm0fJ-4" vertex="1">
          <mxGeometry y="29" width="220" height="25" as="geometry" />
        </mxCell>
        <mxCell id="JeL8wwhdjaoixTxPm0fJ-11" value="- content: Arraylist&amp;lt;String&amp;gt;" style="text;html=1;strokeColor=none;fillColor=#FFFFCC;align=left;verticalAlign=middle;spacingLeft=4;spacingRight=4;overflow=hidden;rotatable=0;points=[[0,0.5],[1,0.5]];portConstraint=eastwest;whiteSpace=wrap;" parent="JeL8wwhdjaoixTxPm0fJ-4" vertex="1">
          <mxGeometry y="54" width="220" height="25" as="geometry" />
        </mxCell>
        <mxCell id="JeL8wwhdjaoixTxPm0fJ-7" value="Storage" style="swimlane;fontStyle=1;align=center;verticalAlign=top;childLayout=stackLayout;horizontal=1;startSize=26;horizontalStack=0;resizeParent=1;resizeParentMax=0;resizeLast=0;collapsible=1;marginBottom=0;whiteSpace=wrap;html=1;fillColor=#FFFFCC;" parent="1" vertex="1">
          <mxGeometry x="100" y="180" width="240" height="216" as="geometry" />
        </mxCell>
        <mxCell id="JeL8wwhdjaoixTxPm0fJ-8" value="- &lt;u&gt;path : String&lt;/u&gt;" style="text;strokeColor=none;fillColor=#FFFFCC;align=left;verticalAlign=top;spacingLeft=4;spacingRight=4;overflow=hidden;rotatable=0;points=[[0,0.5],[1,0.5]];portConstraint=eastwest;whiteSpace=wrap;html=1;" parent="JeL8wwhdjaoixTxPm0fJ-7" vertex="1">
          <mxGeometry y="26" width="240" height="26" as="geometry" />
        </mxCell>
        <mxCell id="JeL8wwhdjaoixTxPm0fJ-18" value="- files : File[]" style="text;strokeColor=none;fillColor=#FFFFCC;align=left;verticalAlign=top;spacingLeft=4;spacingRight=4;overflow=hidden;rotatable=0;points=[[0,0.5],[1,0.5]];portConstraint=eastwest;whiteSpace=wrap;html=1;" parent="JeL8wwhdjaoixTxPm0fJ-7" vertex="1">
          <mxGeometry y="52" width="240" height="26" as="geometry" />
        </mxCell>
        <mxCell id="JeL8wwhdjaoixTxPm0fJ-9" value="" style="line;strokeWidth=1;fillColor=#FFFFCC;align=left;verticalAlign=middle;spacingTop=-1;spacingLeft=3;spacingRight=3;rotatable=0;labelPosition=right;points=[];portConstraint=eastwest;strokeColor=inherit;" parent="JeL8wwhdjaoixTxPm0fJ-7" vertex="1">
          <mxGeometry y="78" width="240" height="8" as="geometry" />
        </mxCell>
        <mxCell id="JeL8wwhdjaoixTxPm0fJ-10" value="+ initialize() : Storage" style="text;strokeColor=none;fillColor=#FFFFCC;align=left;verticalAlign=top;spacingLeft=4;spacingRight=4;overflow=hidden;rotatable=0;points=[[0,0.5],[1,0.5]];portConstraint=eastwest;whiteSpace=wrap;html=1;" parent="JeL8wwhdjaoixTxPm0fJ-7" vertex="1">
          <mxGeometry y="86" width="240" height="26" as="geometry" />
        </mxCell>
        <mxCell id="JeL8wwhdjaoixTxPm0fJ-14" value="+ addToStorage(obj SerializedObject) : bool" style="text;strokeColor=none;fillColor=#FFFFCC;align=left;verticalAlign=top;spacingLeft=4;spacingRight=4;overflow=hidden;rotatable=0;points=[[0,0.5],[1,0.5]];portConstraint=eastwest;whiteSpace=wrap;html=1;" parent="JeL8wwhdjaoixTxPm0fJ-7" vertex="1">
          <mxGeometry y="112" width="240" height="26" as="geometry" />
        </mxCell>
        <mxCell id="JeL8wwhdjaoixTxPm0fJ-16" value="+ save(): bool" style="text;strokeColor=none;fillColor=#FFFFCC;align=left;verticalAlign=top;spacingLeft=4;spacingRight=4;overflow=hidden;rotatable=0;points=[[0,0.5],[1,0.5]];portConstraint=eastwest;whiteSpace=wrap;html=1;" parent="JeL8wwhdjaoixTxPm0fJ-7" vertex="1">
          <mxGeometry y="138" width="240" height="26" as="geometry" />
        </mxCell>
        <mxCell id="JeL8wwhdjaoixTxPm0fJ-17" value="+ load(id int) : SerializedObject" style="text;strokeColor=none;fillColor=#FFFFCC;align=left;verticalAlign=top;spacingLeft=4;spacingRight=4;overflow=hidden;rotatable=0;points=[[0,0.5],[1,0.5]];portConstraint=eastwest;whiteSpace=wrap;html=1;" parent="JeL8wwhdjaoixTxPm0fJ-7" vertex="1">
          <mxGeometry y="164" width="240" height="26" as="geometry" />
        </mxCell>
        <mxCell id="JeL8wwhdjaoixTxPm0fJ-15" value="+ loadAll() : List&amp;lt;SerializedObject&amp;gt;" style="text;strokeColor=none;fillColor=#FFFFCC;align=left;verticalAlign=top;spacingLeft=4;spacingRight=4;overflow=hidden;rotatable=0;points=[[0,0.5],[1,0.5]];portConstraint=eastwest;whiteSpace=wrap;html=1;" parent="JeL8wwhdjaoixTxPm0fJ-7" vertex="1">
          <mxGeometry y="190" width="240" height="26" as="geometry" />
        </mxCell>
        <mxCell id="JeL8wwhdjaoixTxPm0fJ-13" value="&lt;div&gt;Storage is implemented as&amp;nbsp;&lt;/div&gt;&lt;div&gt;singleton&lt;/div&gt;" style="text;html=1;align=center;verticalAlign=middle;whiteSpace=wrap;rounded=0;fillColor=none;" parent="1" vertex="1">
          <mxGeometry x="-70" y="180" width="170" height="30" as="geometry" />
        </mxCell>
        <mxCell id="JeL8wwhdjaoixTxPm0fJ-19" value="File" style="swimlane;fontStyle=1;align=center;verticalAlign=top;childLayout=stackLayout;horizontal=1;startSize=26;horizontalStack=0;resizeParent=1;resizeParentMax=0;resizeLast=0;collapsible=1;marginBottom=0;whiteSpace=wrap;html=1;fillColor=#FFFFCC;" parent="1" vertex="1">
          <mxGeometry x="530" y="320" width="240" height="216" as="geometry" />
        </mxCell>
        <mxCell id="JeL8wwhdjaoixTxPm0fJ-20" value="- filename : String" style="text;strokeColor=none;fillColor=#FFFFCC;align=left;verticalAlign=top;spacingLeft=4;spacingRight=4;overflow=hidden;rotatable=0;points=[[0,0.5],[1,0.5]];portConstraint=eastwest;whiteSpace=wrap;html=1;" parent="JeL8wwhdjaoixTxPm0fJ-19" vertex="1">
          <mxGeometry y="26" width="240" height="26" as="geometry" />
        </mxCell>
        <mxCell id="JeL8wwhdjaoixTxPm0fJ-21" value="- &lt;u&gt;path : String&lt;/u&gt;" style="text;strokeColor=none;fillColor=#FFFFCC;align=left;verticalAlign=top;spacingLeft=4;spacingRight=4;overflow=hidden;rotatable=0;points=[[0,0.5],[1,0.5]];portConstraint=eastwest;whiteSpace=wrap;html=1;" parent="JeL8wwhdjaoixTxPm0fJ-19" vertex="1">
          <mxGeometry y="52" width="240" height="26" as="geometry" />
        </mxCell>
        <mxCell id="JeL8wwhdjaoixTxPm0fJ-22" value="" style="line;strokeWidth=1;fillColor=#FFFFCC;align=left;verticalAlign=middle;spacingTop=-1;spacingLeft=3;spacingRight=3;rotatable=0;labelPosition=right;points=[];portConstraint=eastwest;strokeColor=inherit;" parent="JeL8wwhdjaoixTxPm0fJ-19" vertex="1">
          <mxGeometry y="78" width="240" height="8" as="geometry" />
        </mxCell>
        <mxCell id="JeL8wwhdjaoixTxPm0fJ-23" value="+ File(filename: String, path: String)" style="text;strokeColor=none;fillColor=#FFFFCC;align=left;verticalAlign=top;spacingLeft=4;spacingRight=4;overflow=hidden;rotatable=0;points=[[0,0.5],[1,0.5]];portConstraint=eastwest;whiteSpace=wrap;html=1;" parent="JeL8wwhdjaoixTxPm0fJ-19" vertex="1">
          <mxGeometry y="86" width="240" height="26" as="geometry" />
        </mxCell>
        <mxCell id="JeL8wwhdjaoixTxPm0fJ-24" value="+ write(content: String)" style="text;strokeColor=none;fillColor=#FFFFCC;align=left;verticalAlign=top;spacingLeft=4;spacingRight=4;overflow=hidden;rotatable=0;points=[[0,0.5],[1,0.5]];portConstraint=eastwest;whiteSpace=wrap;html=1;" parent="JeL8wwhdjaoixTxPm0fJ-19" vertex="1">
          <mxGeometry y="112" width="240" height="26" as="geometry" />
        </mxCell>
        <mxCell id="JeL8wwhdjaoixTxPm0fJ-25" value="+ read()" style="text;strokeColor=none;fillColor=#FFFFCC;align=left;verticalAlign=top;spacingLeft=4;spacingRight=4;overflow=hidden;rotatable=0;points=[[0,0.5],[1,0.5]];portConstraint=eastwest;whiteSpace=wrap;html=1;" parent="JeL8wwhdjaoixTxPm0fJ-19" vertex="1">
          <mxGeometry y="138" width="240" height="26" as="geometry" />
        </mxCell>
        <mxCell id="JeL8wwhdjaoixTxPm0fJ-26" value="+ load(id int) : SerializedObject" style="text;strokeColor=none;fillColor=#FFFFCC;align=left;verticalAlign=top;spacingLeft=4;spacingRight=4;overflow=hidden;rotatable=0;points=[[0,0.5],[1,0.5]];portConstraint=eastwest;whiteSpace=wrap;html=1;" parent="JeL8wwhdjaoixTxPm0fJ-19" vertex="1">
          <mxGeometry y="164" width="240" height="26" as="geometry" />
        </mxCell>
        <mxCell id="JeL8wwhdjaoixTxPm0fJ-27" value="+ loadAll() : List&amp;lt;SerializedObject&amp;gt;" style="text;strokeColor=none;fillColor=#FFFFCC;align=left;verticalAlign=top;spacingLeft=4;spacingRight=4;overflow=hidden;rotatable=0;points=[[0,0.5],[1,0.5]];portConstraint=eastwest;whiteSpace=wrap;html=1;" parent="JeL8wwhdjaoixTxPm0fJ-19" vertex="1">
          <mxGeometry y="190" width="240" height="26" as="geometry" />
        </mxCell>
        <mxCell id="zMLsTxm-Z3hjKR7Ob_3u-1" value="Storage related class" style="text;html=1;align=center;verticalAlign=middle;whiteSpace=wrap;rounded=0;fillColor=#FFFFCC;" vertex="1" parent="1">
          <mxGeometry x="100" y="70" width="170" height="30" as="geometry" />
        </mxCell>
        <mxCell id="zMLsTxm-Z3hjKR7Ob_3u-3" value="object related class" style="text;html=1;align=center;verticalAlign=middle;whiteSpace=wrap;rounded=0;fillColor=#A680B8;" vertex="1" parent="1">
          <mxGeometry x="510" y="70" width="170" height="30" as="geometry" />
        </mxCell>
        <mxCell id="zMLsTxm-Z3hjKR7Ob_3u-5" value="Logic related class" style="text;html=1;align=center;verticalAlign=middle;whiteSpace=wrap;rounded=0;fillColor=#99FF99;" vertex="1" parent="1">
          <mxGeometry x="300" y="70" width="170" height="30" as="geometry" />
        </mxCell>
      </root>
    </mxGraphModel>
  </diagram>
</mxfile>
